<svg width="291" height="192" viewBox="0 0 291 192" fill="none" xmlns="http://www.w3.org/2000/svg">
       <path className="path" d="M289.5 191.504H273.334C272.816 191.504 272.335 191.237 272.062 190.798L156.665 5.83099L148.411 5.83301V190.003C148.411 190.832 147.74 191.503 146.911 191.503H130.745C130.227 191.503 129.746 191.236 129.473 190.797L14.076 5.83099L5.83398 5.83301V190.003C5.83398 190.832 5.16298 191.503 4.33398 191.503H1.5C0.671 191.503 0 190.832 0 190.003V1.5C0 0.671 0.671 0 1.5 0H16.83C17.348 0 17.829 0.266994 18.103 0.705994L133.483 185.669H142.576V1.5C142.576 0.671 143.247 0 144.076 0H159.418C159.936 0 160.417 0.266994 160.69 0.705994L276.072 185.669H285.164V1.5C285.164 0.671 285.836 0 286.664 0H289.5C290.328 0 291 0.671 291 1.5V190.004C291 190.832 290.328 191.504 289.5 191.504Z" fill="#D4550A" />
    </svg>
