<svg width="140" height="30" viewBox="0 0 140 30" fill="none" xmlns="http://www.w3.org/2000/svg">
<path d="M125.548 29.2405C125.423 29.2405 125.321 29.138 125.321 29.0115V28.5787C125.321 28.4522 125.423 28.3497 125.548 28.3497C133.031 28.3497 139.119 22.1909 139.119 14.6204C139.119 7.04997 133.031 0.890968 125.548 0.890968C125.423 0.890968 125.321 0.788514 125.321 0.661935V0.229216C125.321 0.102637 125.423 0.000182944 125.548 0.000182944C133.517 0.000182944 140 6.55877 140 14.6204C140 22.6821 133.517 29.2405 125.548 29.2405Z" fill="white"/>
<path d="M109.258 29.2405H108.83C108.705 29.2405 108.604 29.138 108.604 29.0114V0.229033C108.604 0.102454 108.705 0 108.83 0H122.949C123.074 0 123.176 0.102454 123.176 0.229033V0.661752C123.176 0.788331 123.074 0.890785 122.949 0.890785H109.485V29.0113C109.485 29.1379 109.383 29.2405 109.258 29.2405Z" fill="white"/>
<path d="M106.24 29.2405C98.2704 29.2405 91.7871 22.6819 91.7871 14.6202C91.7871 6.55858 98.2704 0 106.24 0C106.365 0 106.466 0.102454 106.466 0.229033V0.661752C106.466 0.788331 106.365 0.890785 106.24 0.890785C98.7561 0.890785 92.6679 7.04978 92.6679 14.6202C92.6679 22.1907 98.7561 28.3495 106.24 28.3495C106.365 28.3495 106.466 28.452 106.466 28.5786V29.0113C106.466 29.1379 106.365 29.2405 106.24 29.2405Z" fill="white"/>
<path d="M89.4231 29.2405H86.9831C86.9049 29.2405 86.8323 29.1997 86.7911 29.1327L69.3734 0.890326L68.1276 0.890634V29.0113C68.1276 29.1379 68.0263 29.2403 67.9012 29.2403H65.4612C65.383 29.2403 65.3104 29.1996 65.2692 29.1325L47.8516 0.890326L46.6075 0.890634V29.0113C46.6075 29.1379 46.5063 29.2403 46.3811 29.2403H45.9534C45.8283 29.2403 45.727 29.1379 45.727 29.0113V0.229033C45.727 0.102454 45.8283 0 45.9534 0H48.2672C48.3454 0 48.418 0.0407669 48.4594 0.107797L65.8744 28.3495H67.2469V0.229033C67.2469 0.102454 67.3482 0 67.4733 0H69.789C69.8672 0 69.9398 0.0407669 69.981 0.107797L87.3963 28.3495H88.7686V0.229033C88.7686 0.102454 88.8701 0 88.995 0H89.4231C89.5481 0 89.6495 0.102454 89.6495 0.229033V29.0114C89.6495 29.1379 89.5481 29.2405 89.4231 29.2405Z" fill="white"/>
<path d="M29.1409 29.2405C21.1717 29.2405 14.6884 22.6819 14.6884 14.6202C14.6884 6.55858 21.1717 0 29.1409 0C37.11 0 43.5933 6.55858 43.5933 14.6202C43.5933 22.6819 37.11 29.2405 29.1409 29.2405ZM29.1409 0.890785C21.6573 0.890785 15.5691 7.04978 15.5691 14.6202C15.5691 22.1907 21.6573 28.3495 29.1409 28.3495C36.6245 28.3495 42.7126 22.1907 42.7126 14.6202C42.7126 7.04978 36.6245 0.890785 29.1409 0.890785Z" fill="white"/>
<path d="M14.4525 29.2405C6.48333 29.2405 0 22.6819 0 14.6202C0 6.55858 6.48333 0 14.4525 0C14.5776 0 14.6789 0.102454 14.6789 0.229033V0.661752C14.6789 0.788331 14.5776 0.890785 14.4525 0.890785C6.96889 0.890785 0.880715 7.04978 0.880715 14.6202C0.880715 22.1907 6.96889 28.3495 14.4525 28.3495C14.5776 28.3495 14.6789 28.452 14.6789 28.5786V29.0113C14.6789 29.1379 14.5776 29.2405 14.4525 29.2405Z" fill="white"/>
</svg>
