<svg width="140" height="56" viewBox="0 0 140 56" fill="none" xmlns="http://www.w3.org/2000/svg">
<path d="M125.548 29.2405C125.423 29.2405 125.321 29.138 125.321 29.0115V28.5787C125.321 28.4522 125.423 28.3497 125.548 28.3497C133.031 28.3497 139.119 22.1909 139.119 14.6204C139.119 7.04997 133.031 0.890968 125.548 0.890968C125.423 0.890968 125.321 0.788514 125.321 0.661935V0.229216C125.321 0.102637 125.423 0.000182944 125.548 0.000182944C133.517 0.000182944 140 6.55877 140 14.6204C140 22.6821 133.517 29.2405 125.548 29.2405Z" fill="white"/>
<path d="M109.258 29.2405H108.83C108.705 29.2405 108.604 29.138 108.604 29.0114V0.229033C108.604 0.102454 108.705 0 108.83 0H122.949C123.074 0 123.176 0.102454 123.176 0.229033V0.661752C123.176 0.788331 123.074 0.890785 122.949 0.890785H109.485V29.0113C109.485 29.1379 109.383 29.2405 109.258 29.2405Z" fill="white"/>
<path d="M106.24 29.2405C98.2704 29.2405 91.7871 22.6819 91.7871 14.6202C91.7871 6.55858 98.2704 0 106.24 0C106.365 0 106.466 0.102454 106.466 0.229033V0.661752C106.466 0.788331 106.365 0.890785 106.24 0.890785C98.7561 0.890785 92.6679 7.04978 92.6679 14.6202C92.6679 22.1907 98.7561 28.3495 106.24 28.3495C106.365 28.3495 106.466 28.452 106.466 28.5786V29.0113C106.466 29.1379 106.365 29.2405 106.24 29.2405Z" fill="white"/>
<path d="M89.4231 29.2405H86.9831C86.9049 29.2405 86.8323 29.1997 86.7911 29.1327L69.3734 0.890326L68.1276 0.890634V29.0113C68.1276 29.1379 68.0263 29.2403 67.9012 29.2403H65.4612C65.383 29.2403 65.3104 29.1996 65.2692 29.1325L47.8516 0.890326L46.6075 0.890634V29.0113C46.6075 29.1379 46.5063 29.2403 46.3811 29.2403H45.9534C45.8283 29.2403 45.727 29.1379 45.727 29.0113V0.229033C45.727 0.102454 45.8283 0 45.9534 0H48.2672C48.3454 0 48.418 0.0407669 48.4594 0.107797L65.8744 28.3495H67.2469V0.229033C67.2469 0.102454 67.3482 0 67.4733 0H69.789C69.8672 0 69.9398 0.0407669 69.981 0.107797L87.3963 28.3495H88.7686V0.229033C88.7686 0.102454 88.8701 0 88.995 0H89.4231C89.5481 0 89.6495 0.102454 89.6495 0.229033V29.0114C89.6495 29.1379 89.5481 29.2405 89.4231 29.2405Z" fill="white"/>
<path d="M29.1409 29.2405C21.1717 29.2405 14.6884 22.6819 14.6884 14.6202C14.6884 6.55858 21.1717 0 29.1409 0C37.11 0 43.5933 6.55858 43.5933 14.6202C43.5933 22.6819 37.11 29.2405 29.1409 29.2405ZM29.1409 0.890785C21.6573 0.890785 15.5691 7.04978 15.5691 14.6202C15.5691 22.1907 21.6573 28.3495 29.1409 28.3495C36.6245 28.3495 42.7126 22.1907 42.7126 14.6202C42.7126 7.04978 36.6245 0.890785 29.1409 0.890785Z" fill="white"/>
<path d="M14.4525 29.2405C6.48333 29.2405 0 22.6819 0 14.6202C0 6.55858 6.48333 0 14.4525 0C14.5776 0 14.6789 0.102454 14.6789 0.229033V0.661752C14.6789 0.788331 14.5776 0.890785 14.4525 0.890785C6.96889 0.890785 0.880715 7.04978 0.880715 14.6202C0.880715 22.1907 6.96889 28.3495 14.4525 28.3495C14.5776 28.3495 14.6789 28.452 14.6789 28.5786V29.0113C14.6789 29.1379 14.5776 29.2405 14.4525 29.2405Z" fill="white"/>
<path opacity="0.5" d="M18.664 46.988H21.256L21.124 46.58C20.82 45.636 20.572 44.856 20.38 44.24C20.188 43.616 20.072 43.228 20.032 43.076L19.972 42.848C19.884 43.224 19.492 44.468 18.796 46.58L18.664 46.988ZM22.228 50L21.592 48.02H18.328L17.68 50H16.372L19.168 41.912H20.788L23.548 50H22.228ZM26.0339 46.112H27.0899C27.6739 46.112 28.1179 45.968 28.4219 45.68C28.7339 45.392 28.8899 45.012 28.8899 44.54C28.8899 44.044 28.7339 43.652 28.4219 43.364C28.1099 43.076 27.6579 42.932 27.0659 42.932H26.0339V46.112ZM24.7979 41.912H27.1139C28.0419 41.912 28.7779 42.16 29.3219 42.656C29.8659 43.144 30.1379 43.772 30.1379 44.54C30.1379 45.308 29.8619 45.932 29.3099 46.412C28.7659 46.892 28.0579 47.132 27.1859 47.132H26.0339V50H24.7979V41.912ZM31.4915 50V41.912H32.7155V50H31.4915ZM38.7727 48.956H40.0447C40.9647 48.956 41.6647 48.668 42.1447 48.092C42.6247 47.516 42.8647 46.776 42.8647 45.872C42.8647 45.04 42.6047 44.348 42.0847 43.796C41.5647 43.244 40.8727 42.968 40.0087 42.968H38.7727V48.956ZM37.5127 41.912H40.0327C41.2327 41.912 42.2167 42.284 42.9847 43.028C43.7527 43.772 44.1367 44.72 44.1367 45.872C44.1367 47.072 43.7727 48.06 43.0447 48.836C42.3247 49.612 41.3287 50 40.0567 50H37.5127V41.912ZM48.0126 50.108C47.1166 50.108 46.4126 49.816 45.9006 49.232C45.3886 48.648 45.1326 47.908 45.1326 47.012C45.1326 46.1 45.3966 45.344 45.9246 44.744C46.4526 44.136 47.1486 43.832 48.0126 43.832C48.9406 43.832 49.6566 44.128 50.1606 44.72C50.6646 45.304 50.9166 46.052 50.9166 46.964C50.9166 47.876 50.6566 48.628 50.1366 49.22C49.6246 49.812 48.9166 50.108 48.0126 50.108ZM48.0006 44.828C47.4806 44.828 47.0766 45.036 46.7886 45.452C46.5006 45.86 46.3566 46.368 46.3566 46.976C46.3566 47.576 46.5046 48.084 46.8006 48.5C47.0966 48.908 47.5006 49.112 48.0126 49.112C48.5566 49.112 48.9686 48.912 49.2486 48.512C49.5366 48.112 49.6806 47.604 49.6806 46.988C49.6806 46.356 49.5446 45.84 49.2726 45.44C49.0006 45.032 48.5766 44.828 48.0006 44.828ZM53.1181 46.988C53.1341 47.604 53.3221 48.112 53.6821 48.512C54.0421 48.904 54.5461 49.1 55.1941 49.1C55.6741 49.1 56.1221 48.968 56.5381 48.704V49.76C56.1461 50 55.6461 50.12 55.0381 50.12C54.0861 50.12 53.3261 49.82 52.7581 49.22C52.1901 48.62 51.9061 47.872 51.9061 46.976C51.9061 46.104 52.1901 45.36 52.7581 44.744C53.3341 44.12 54.1101 43.808 55.0861 43.808C55.6141 43.808 56.0981 43.92 56.5381 44.144V45.224C56.1461 44.976 55.7021 44.852 55.2061 44.852C54.5741 44.852 54.0661 45.052 53.6821 45.452C53.3061 45.852 53.1181 46.364 53.1181 46.988ZM61.6705 43.916H62.8465V50H61.6705V48.956C61.3505 49.7 60.7185 50.072 59.7745 50.072C59.1745 50.072 58.6985 49.896 58.3465 49.544C57.9945 49.184 57.8185 48.692 57.8185 48.068V43.916H59.0065V47.78C59.0065 48.196 59.1065 48.516 59.3065 48.74C59.5145 48.956 59.7985 49.064 60.1585 49.064C60.6145 49.064 60.9785 48.904 61.2505 48.584C61.5305 48.264 61.6705 47.812 61.6705 47.228V43.916ZM65.6759 43.916V44.888C66.0199 44.184 66.5919 43.832 67.3919 43.832C68.3039 43.832 68.8879 44.224 69.1439 45.008C69.3119 44.632 69.5559 44.344 69.8759 44.144C70.1959 43.936 70.5559 43.832 70.9559 43.832C71.5799 43.832 72.0519 44.016 72.3719 44.384C72.6999 44.752 72.8639 45.26 72.8639 45.908V50H71.6879V46.16C71.6879 45.288 71.3359 44.852 70.6319 44.852C70.2799 44.852 69.9639 45.008 69.6839 45.32C69.4119 45.632 69.2759 46.092 69.2759 46.7V50H68.0999V46.16C68.0999 45.288 67.7439 44.852 67.0319 44.852C66.6879 44.852 66.3759 45.008 66.0959 45.32C65.8159 45.632 65.6759 46.092 65.6759 46.7V50H64.4999V43.916H65.6759ZM78.2408 46.52V46.304C78.2248 45.848 78.1008 45.488 77.8688 45.224C77.6368 44.952 77.3048 44.816 76.8728 44.816C76.4728 44.816 76.1288 44.964 75.8408 45.26C75.5528 45.548 75.3728 45.968 75.3008 46.52H78.2408ZM78.9968 48.62V49.676C78.5488 49.932 77.9568 50.06 77.2208 50.06C76.2768 50.06 75.5248 49.776 74.9648 49.208C74.4048 48.64 74.1248 47.896 74.1248 46.976C74.1248 46 74.3808 45.236 74.8928 44.684C75.4048 44.124 76.0568 43.844 76.8488 43.844C77.6248 43.844 78.2408 44.088 78.6968 44.576C79.1528 45.056 79.3808 45.752 79.3808 46.664C79.3808 46.912 79.3568 47.172 79.3088 47.444H75.3128C75.3928 47.972 75.6168 48.376 75.9848 48.656C76.3528 48.936 76.8168 49.076 77.3768 49.076C78.0248 49.076 78.5648 48.924 78.9968 48.62ZM81.9415 43.916V44.96C82.3015 44.208 82.9335 43.832 83.8375 43.832C84.4375 43.832 84.9135 44.016 85.2655 44.384C85.6175 44.752 85.7935 45.252 85.7935 45.884V50H84.6175V46.16C84.6175 45.736 84.5095 45.412 84.2935 45.188C84.0855 44.964 83.8055 44.852 83.4535 44.852C83.0375 44.852 82.6815 45.016 82.3855 45.344C82.0895 45.664 81.9415 46.116 81.9415 46.7V50H80.7655V43.916H81.9415ZM88.8989 44.828V48.176C88.8989 48.76 89.1789 49.052 89.7389 49.052C90.0669 49.052 90.3429 48.964 90.5669 48.788V49.844C90.3029 49.988 89.9789 50.06 89.5949 50.06C88.3389 50.06 87.7109 49.424 87.7109 48.152V44.828H86.7629V43.916H87.7109V42.428H88.8989V43.916H90.4949V44.828H88.8989ZM95.0672 47.288H94.1552C93.7072 47.288 93.3672 47.376 93.1352 47.552C92.9112 47.728 92.7992 47.952 92.7992 48.224C92.7992 48.504 92.8872 48.724 93.0632 48.884C93.2392 49.044 93.4952 49.124 93.8312 49.124C94.2152 49.124 94.5152 49.02 94.7312 48.812C94.9552 48.596 95.0672 48.316 95.0672 47.972V47.288ZM92.0072 45.368V44.228C92.4792 43.956 93.1032 43.82 93.8792 43.82C95.4712 43.82 96.2672 44.592 96.2672 46.136V50H95.1032V49.28C94.7912 49.792 94.2432 50.048 93.4592 50.048C92.8832 50.048 92.4192 49.884 92.0672 49.556C91.7232 49.22 91.5512 48.796 91.5512 48.284C91.5512 47.7 91.7712 47.248 92.2112 46.928C92.6512 46.6 93.2672 46.436 94.0592 46.436H95.0672V46.088C95.0672 45.672 94.9672 45.36 94.7672 45.152C94.5672 44.936 94.2352 44.828 93.7712 44.828C93.1232 44.828 92.5352 45.008 92.0072 45.368ZM99.3754 44.828V48.176C99.3754 48.76 99.6554 49.052 100.215 49.052C100.543 49.052 100.819 48.964 101.043 48.788V49.844C100.779 49.988 100.455 50.06 100.071 50.06C98.8154 50.06 98.1874 49.424 98.1874 48.152V44.828H97.2394V43.916H98.1874V42.428H99.3754V43.916H100.971V44.828H99.3754ZM102.388 50V43.916H103.576V50H102.388ZM102.448 42.584C102.312 42.44 102.244 42.264 102.244 42.056C102.244 41.848 102.312 41.672 102.448 41.528C102.592 41.384 102.768 41.312 102.976 41.312C103.184 41.312 103.36 41.384 103.504 41.528C103.648 41.672 103.72 41.848 103.72 42.056C103.72 42.256 103.648 42.428 103.504 42.572C103.36 42.716 103.184 42.788 102.976 42.788C102.768 42.788 102.592 42.72 102.448 42.584ZM107.825 50.108C106.929 50.108 106.225 49.816 105.713 49.232C105.201 48.648 104.945 47.908 104.945 47.012C104.945 46.1 105.209 45.344 105.737 44.744C106.265 44.136 106.961 43.832 107.825 43.832C108.753 43.832 109.469 44.128 109.973 44.72C110.477 45.304 110.729 46.052 110.729 46.964C110.729 47.876 110.469 48.628 109.949 49.22C109.437 49.812 108.729 50.108 107.825 50.108ZM107.813 44.828C107.293 44.828 106.889 45.036 106.601 45.452C106.313 45.86 106.169 46.368 106.169 46.976C106.169 47.576 106.317 48.084 106.613 48.5C106.909 48.908 107.313 49.112 107.825 49.112C108.369 49.112 108.781 48.912 109.061 48.512C109.349 48.112 109.493 47.604 109.493 46.988C109.493 46.356 109.357 45.84 109.085 45.44C108.813 45.032 108.389 44.828 107.813 44.828ZM113.231 43.916V44.96C113.591 44.208 114.223 43.832 115.127 43.832C115.727 43.832 116.203 44.016 116.555 44.384C116.907 44.752 117.083 45.252 117.083 45.884V50H115.907V46.16C115.907 45.736 115.799 45.412 115.583 45.188C115.375 44.964 115.095 44.852 114.743 44.852C114.327 44.852 113.971 45.016 113.675 45.344C113.379 45.664 113.231 46.116 113.231 46.7V50H112.055V43.916H113.231Z" fill="white"/>
</svg>
